<svg id="visual" viewBox="0 0 1280 590" width="1280" height="590" xmlns="http://www.w3.org/2000/svg" xmlns:xlink="http://www.w3.org/1999/xlink" version="1.1"><g stroke-width="2" stroke-linejoin="bevel"><path d="M702.1 264L732.1 368L825.3 347Z" fill="#52d69c" stroke="#FFFFFF"></path><path d="M825.3 347L881.3 249L702.1 264Z" fill="#d5de61" stroke="#FFFFFF"></path><path d="M541.9 331L713.1 445L732.1 368Z" fill="#80db86" stroke="#FFFFFF"></path><path d="M732.1 368L713.1 445L825.3 347Z" fill="#00cfb2" stroke="#FFFFFF"></path><path d="M862.3 144L701.1 132L702.1 264Z" fill="#00cfb2" stroke="#FFFFFF"></path><path d="M881.3 249L862.3 144L702.1 264Z" fill="#00a5de" stroke="#FFFFFF"></path><path d="M701.1 132L565.9 260L702.1 264Z" fill="#d5de61" stroke="#FFFFFF"></path><path d="M702.1 264L541.9 331L732.1 368Z" fill="#00bdd3" stroke="#FFFFFF"></path><path d="M713.1 445L870.3 489L825.3 347Z" fill="#ffdb5c" stroke="#FFFFFF"></path><path d="M825.3 347L1003.6 326L881.3 249Z" fill="#80db86" stroke="#FFFFFF"></path><path d="M565.9 260L541.9 331L702.1 264Z" fill="#4897d8" stroke="#FFFFFF"></path><path d="M870.3 489L1003.6 326L825.3 347Z" fill="#4897d8" stroke="#FFFFFF"></path><path d="M881.3 249L968.6 116L862.3 144Z" fill="#00bdd3" stroke="#FFFFFF"></path><path d="M1003.6 326L1009.6 254L881.3 249Z" fill="#d5de61" stroke="#FFFFFF"></path><path d="M674.1 0L588.9 99L701.1 132Z" fill="#00cfb2" stroke="#FFFFFF"></path><path d="M701.1 132L588.9 99L565.9 260Z" fill="#4897d8" stroke="#FFFFFF"></path><path d="M428.7 205L450.7 365L541.9 331Z" fill="#4897d8" stroke="#FFFFFF"></path><path d="M1009.6 254L968.6 116L881.3 249Z" fill="#00b1dc" stroke="#FFFFFF"></path><path d="M876.3 0L674.1 0L701.1 132Z" fill="#ffdb5c" stroke="#FFFFFF"></path><path d="M541.9 331L550.9 490L713.1 445Z" fill="#00a5de" stroke="#FFFFFF"></path><path d="M713.1 445L837.3 590L870.3 489Z" fill="#80db86" stroke="#FFFFFF"></path><path d="M672.1 590L837.3 590L713.1 445Z" fill="#00a5de" stroke="#FFFFFF"></path><path d="M870.3 489L1024.6 492L1003.6 326Z" fill="#52d69c" stroke="#FFFFFF"></path><path d="M550.9 490L672.1 590L713.1 445Z" fill="#00c7c5" stroke="#FFFFFF"></path><path d="M876.3 0L701.1 132L862.3 144Z" fill="#4897d8" stroke="#FFFFFF"></path><path d="M1020.6 590L1024.6 492L870.3 489Z" fill="#00a5de" stroke="#FFFFFF"></path><path d="M1003.6 326L1139.8 259L1009.6 254Z" fill="#00a5de" stroke="#FFFFFF"></path><path d="M968.6 116L876.3 0L862.3 144Z" fill="#4897d8" stroke="#FFFFFF"></path><path d="M541.9 331L450.7 365L550.9 490Z" fill="#00cfb2" stroke="#FFFFFF"></path><path d="M428.7 205L541.9 331L565.9 260Z" fill="#00a5de" stroke="#FFFFFF"></path><path d="M556.9 0L452.7 152L588.9 99Z" fill="#ffdb5c" stroke="#FFFFFF"></path><path d="M588.9 99L452.7 152L565.9 260Z" fill="#abde71" stroke="#FFFFFF"></path><path d="M452.7 152L428.7 205L565.9 260Z" fill="#00b1dc" stroke="#FFFFFF"></path><path d="M674.1 0L556.9 0L588.9 99Z" fill="#00cfb2" stroke="#FFFFFF"></path><path d="M550.9 490L531.9 590L672.1 590Z" fill="#00b1dc" stroke="#FFFFFF"></path><path d="M425.7 590L531.9 590L550.9 490Z" fill="#ffdb5c" stroke="#FFFFFF"></path><path d="M1009.6 254L1115.8 125L968.6 116Z" fill="#00cfb2" stroke="#FFFFFF"></path><path d="M968.6 116L1032.6 0L876.3 0Z" fill="#00c7c5" stroke="#FFFFFF"></path><path d="M1167.8 369L1139.8 259L1003.6 326Z" fill="#00c7c5" stroke="#FFFFFF"></path><path d="M837.3 590L1020.6 590L870.3 489Z" fill="#ffdb5c" stroke="#FFFFFF"></path><path d="M1024.6 492L1167.8 369L1003.6 326Z" fill="#00cfb2" stroke="#FFFFFF"></path><path d="M1139.8 259L1115.8 125L1009.6 254Z" fill="#00cfb2" stroke="#FFFFFF"></path><path d="M1115.8 125L1032.6 0L968.6 116Z" fill="#00cfb2" stroke="#FFFFFF"></path><path d="M1160.8 504L1167.8 369L1024.6 492Z" fill="#4897d8" stroke="#FFFFFF"></path><path d="M1280 153L1141.8 0L1115.8 125Z" fill="#00bdd3" stroke="#FFFFFF"></path><path d="M317.4 333L397.7 511L450.7 365Z" fill="#00a5de" stroke="#FFFFFF"></path><path d="M450.7 365L397.7 511L550.9 490Z" fill="#00b1dc" stroke="#FFFFFF"></path><path d="M1020.6 590L1097.8 590L1024.6 492Z" fill="#00b1dc" stroke="#FFFFFF"></path><path d="M1097.8 590L1160.8 504L1024.6 492Z" fill="#00a5de" stroke="#FFFFFF"></path><path d="M397.7 511L425.7 590L550.9 490Z" fill="#00c7c5" stroke="#FFFFFF"></path><path d="M428.7 205L317.4 333L450.7 365Z" fill="#52d69c" stroke="#FFFFFF"></path><path d="M397.7 511L311.4 590L425.7 590Z" fill="#00cfb2" stroke="#FFFFFF"></path><path d="M263.4 274L317.4 333L428.7 205Z" fill="#00cfb2" stroke="#FFFFFF"></path><path d="M291.4 78L428.7 205L452.7 152Z" fill="#52d69c" stroke="#FFFFFF"></path><path d="M556.9 0L405.7 0L452.7 152Z" fill="#00a5de" stroke="#FFFFFF"></path><path d="M1280 153L1115.8 125L1139.8 259Z" fill="#52d69c" stroke="#FFFFFF"></path><path d="M1115.8 125L1141.8 0L1032.6 0Z" fill="#52d69c" stroke="#FFFFFF"></path><path d="M291.4 78L263.4 274L428.7 205Z" fill="#00c7c5" stroke="#FFFFFF"></path><path d="M251.4 477L311.4 590L397.7 511Z" fill="#d5de61" stroke="#FFFFFF"></path><path d="M1167.8 369L1280 230L1139.8 259Z" fill="#ffdb5c" stroke="#FFFFFF"></path><path d="M1280 376L1280 230L1167.8 369Z" fill="#00bdd3" stroke="#FFFFFF"></path><path d="M1280 446L1167.8 369L1160.8 504Z" fill="#00a5de" stroke="#FFFFFF"></path><path d="M1280 446L1280 376L1167.8 369Z" fill="#00cfb2" stroke="#FFFFFF"></path><path d="M405.7 0L291.4 78L452.7 152Z" fill="#4897d8" stroke="#FFFFFF"></path><path d="M1280 590L1280 446L1160.8 504Z" fill="#00cfb2" stroke="#FFFFFF"></path><path d="M1280 230L1280 153L1139.8 259Z" fill="#d5de61" stroke="#FFFFFF"></path><path d="M251.4 477L397.7 511L317.4 333Z" fill="#ffdb5c" stroke="#FFFFFF"></path><path d="M179.2 326L251.4 477L317.4 333Z" fill="#00c7c5" stroke="#FFFFFF"></path><path d="M174.2 254L179.2 326L263.4 274Z" fill="#4897d8" stroke="#FFFFFF"></path><path d="M263.4 274L179.2 326L317.4 333Z" fill="#00bdd3" stroke="#FFFFFF"></path><path d="M405.7 0L273.4 0L291.4 78Z" fill="#00a5de" stroke="#FFFFFF"></path><path d="M174.2 254L263.4 274L162.2 156Z" fill="#00c7c5" stroke="#FFFFFF"></path><path d="M1097.8 590L1280 590L1160.8 504Z" fill="#4897d8" stroke="#FFFFFF"></path><path d="M162.2 156L263.4 274L291.4 78Z" fill="#80db86" stroke="#FFFFFF"></path><path d="M1280 153L1280 0L1141.8 0Z" fill="#ffdb5c" stroke="#FFFFFF"></path><path d="M159.2 0L162.2 156L291.4 78Z" fill="#d5de61" stroke="#FFFFFF"></path><path d="M0 340L114.2 491L179.2 326Z" fill="#ffdb5c" stroke="#FFFFFF"></path><path d="M114.2 491L251.4 477L179.2 326Z" fill="#00bdd3" stroke="#FFFFFF"></path><path d="M114.2 491L174.2 590L251.4 477Z" fill="#00cfb2" stroke="#FFFFFF"></path><path d="M251.4 477L174.2 590L311.4 590Z" fill="#00cfb2" stroke="#FFFFFF"></path><path d="M273.4 0L159.2 0L291.4 78Z" fill="#00c7c5" stroke="#FFFFFF"></path><path d="M0 340L179.2 326L174.2 254Z" fill="#abde71" stroke="#FFFFFF"></path><path d="M0 340L174.2 254L0 233Z" fill="#80db86" stroke="#FFFFFF"></path><path d="M0 233L174.2 254L162.2 156Z" fill="#4897d8" stroke="#FFFFFF"></path><path d="M114.2 491L0 590L174.2 590Z" fill="#4897d8" stroke="#FFFFFF"></path><path d="M0 93L0 233L162.2 156Z" fill="#ffdb5c" stroke="#FFFFFF"></path><path d="M159.2 0L0 93L162.2 156Z" fill="#52d69c" stroke="#FFFFFF"></path><path d="M0 340L0 511L114.2 491Z" fill="#00b1dc" stroke="#FFFFFF"></path><path d="M0 511L0 590L114.2 491Z" fill="#00bdd3" stroke="#FFFFFF"></path><path d="M159.2 0L0 0L0 93Z" fill="#00a5de" stroke="#FFFFFF"></path></g></svg>