<svg id="visual" viewBox="0 0 1280 590" width="1280" height="590" xmlns="http://www.w3.org/2000/svg" xmlns:xlink="http://www.w3.org/1999/xlink" version="1.1"><path d="M1241 590L1236.7 540.8C1232.3 491.7 1223.7 393.3 1217.2 295C1210.7 196.7 1206.3 98.3 1204.2 49.2L1202 0L1280 0L1280 49.2C1280 98.3 1280 196.7 1280 295C1280 393.3 1280 491.7 1280 540.8L1280 590Z" fill="#85b7e4"></path><path d="M1189 590L1184.8 540.8C1180.7 491.7 1172.3 393.3 1159.7 295C1147 196.7 1130 98.3 1121.5 49.2L1113 0L1203 0L1205.2 49.2C1207.3 98.3 1211.7 196.7 1218.2 295C1224.7 393.3 1233.3 491.7 1237.7 540.8L1242 590Z" fill="#7bb1e2"></path><path d="M1177 590L1159.8 540.8C1142.7 491.7 1108.3 393.3 1087 295C1065.7 196.7 1057.3 98.3 1053.2 49.2L1049 0L1114 0L1122.5 49.2C1131 98.3 1148 196.7 1160.7 295C1173.3 393.3 1181.7 491.7 1185.8 540.8L1190 590Z" fill="#71abe0"></path><path d="M1023 590L982.5 540.8C942 491.7 861 393.3 854.7 295C848.3 196.7 916.7 98.3 950.8 49.2L985 0L1050 0L1054.2 49.2C1058.3 98.3 1066.7 196.7 1088 295C1109.3 393.3 1143.7 491.7 1160.8 540.8L1178 590Z" fill="#66a6dd"></path><path d="M972 590L931.5 540.8C891 491.7 810 393.3 805.7 295C801.3 196.7 873.7 98.3 909.8 49.2L946 0L986 0L951.8 49.2C917.7 98.3 849.3 196.7 855.7 295C862 393.3 943 491.7 983.5 540.8L1024 590Z" fill="#5ba0db"></path><path d="M588 590L564.5 540.8C541 491.7 494 393.3 538.8 295C583.7 196.7 720.3 98.3 788.7 49.2L857 0L947 0L910.8 49.2C874.7 98.3 802.3 196.7 806.7 295C811 393.3 892 491.7 932.5 540.8L973 590Z" fill="#4e9ad9"></path><path d="M524 590L496.2 540.8C468.3 491.7 412.7 393.3 438.2 295C463.7 196.7 570.3 98.3 623.7 49.2L677 0L858 0L789.7 49.2C721.3 98.3 584.7 196.7 539.8 295C495 393.3 542 491.7 565.5 540.8L589 590Z" fill="#4693d3"></path><path d="M434 590L412.7 540.8C391.3 491.7 348.7 393.3 370 295C391.3 196.7 476.7 98.3 519.3 49.2L562 0L678 0L624.7 49.2C571.3 98.3 464.7 196.7 439.2 295C413.7 393.3 469.3 491.7 497.2 540.8L525 590Z" fill="#428cc8"></path><path d="M306 590L303.8 540.8C301.7 491.7 297.3 393.3 310.2 295C323 196.7 353 98.3 368 49.2L383 0L563 0L520.3 49.2C477.7 98.3 392.3 196.7 371 295C349.7 393.3 392.3 491.7 413.7 540.8L435 590Z" fill="#3e85be"></path><path d="M76 590L90.8 540.8C105.7 491.7 135.3 393.3 139.5 295C143.7 196.7 122.3 98.3 111.7 49.2L101 0L384 0L369 49.2C354 98.3 324 196.7 311.2 295C298.3 393.3 302.7 491.7 304.8 540.8L307 590Z" fill="#3a7db4"></path><path d="M12 590L16.2 540.8C20.3 491.7 28.7 393.3 43.5 295C58.3 196.7 79.7 98.3 90.3 49.2L101 0L102 0L112.7 49.2C123.3 98.3 144.7 196.7 140.5 295C136.3 393.3 106.7 491.7 91.8 540.8L77 590Z" fill="#3776aa"></path><path d="M0 590L0 540.8C0 491.7 0 393.3 0 295C0 196.7 0 98.3 0 49.2L0 0L102 0L91.3 49.2C80.7 98.3 59.3 196.7 44.5 295C29.7 393.3 21.3 491.7 17.2 540.8L13 590Z" fill="#336fa0"></path></svg>