<svg id="visual" viewBox="0 0 900 450" width="900" height="450" xmlns="http://www.w3.org/2000/svg" xmlns:xlink="http://www.w3.org/1999/xlink" version="1.1"><path d="M827 450L827 360L818 270L854 180L863 90L845 0L900 0L900 90L900 180L900 270L900 360L900 450Z" fill="#4897d8"></path><path d="M782 450L755 360L746 270L764 180L809 90L800 0L846 0L864 90L855 180L819 270L828 360L828 450Z" fill="#00a8de"></path><path d="M683 450L647 360L692 270L710 180L746 90L746 0L801 0L810 90L765 180L747 270L756 360L783 450Z" fill="#00b7d8"></path><path d="M611 450L602 360L638 270L683 180L665 90L710 0L747 0L747 90L711 180L693 270L648 360L684 450Z" fill="#00c4c9"></path><path d="M575 450L566 360L593 270L593 180L593 90L629 0L711 0L666 90L684 180L639 270L603 360L612 450Z" fill="#00cfb2"></path><path d="M431 450L395 360L449 270L413 180L458 90L422 0L630 0L594 90L594 180L594 270L567 360L576 450Z" fill="#5fd797"></path><path d="M161 450L188 360L269 270L134 180L350 90L233 0L423 0L459 90L414 180L450 270L396 360L432 450Z" fill="#96dd7b"></path><path d="M53 450L71 360L71 270L26 180L35 90L53 0L234 0L351 90L135 180L270 270L189 360L162 450Z" fill="#cade64"></path><path d="M0 450L0 360L0 270L0 180L0 90L0 0L54 0L36 90L27 180L72 270L72 360L54 450Z" fill="#ffdb5c"></path></svg>