<svg id="visual" viewBox="0 0 1280 590" width="1280" height="590" xmlns="http://www.w3.org/2000/svg" xmlns:xlink="http://www.w3.org/1999/xlink" version="1.1"><rect x="0" y="0" width="1280" height="590" fill="#4897D8"></rect><path d="M0 294L183 239L366 194L549 195L731 161L914 144L1097 240L1280 195L1280 591L1097 591L914 591L731 591L549 591L366 591L183 591L0 591Z" fill="#ffdb5c"></path><path d="M0 288L183 281L366 232L549 279L731 353L914 285L1097 300L1280 249L1280 591L1097 591L914 591L731 591L549 591L366 591L183 591L0 591Z" fill="#ffbf51"></path><path d="M0 375L183 351L366 325L549 417L731 375L914 413L1097 319L1280 391L1280 591L1097 591L914 591L731 591L549 591L366 591L183 591L0 591Z" fill="#ffa44e"></path><path d="M0 433L183 432L366 460L549 417L731 411L914 383L1097 449L1280 453L1280 591L1097 591L914 591L731 591L549 591L366 591L183 591L0 591Z" fill="#ff8951"></path><path d="M0 535L183 505L366 495L549 519L731 459L914 521L1097 496L1280 540L1280 591L1097 591L914 591L731 591L549 591L366 591L183 591L0 591Z" fill="#fa6e59"></path></svg>