<svg id="visual" viewBox="0 0 1280 590" width="1280" height="590" xmlns="http://www.w3.org/2000/svg" xmlns:xlink="http://www.w3.org/1999/xlink" version="1.1"><path d="M1279 590L1274.7 573.7C1270.3 557.3 1261.7 524.7 1234 491.8C1206.3 459 1159.7 426 1157.7 393.2C1155.7 360.3 1198.3 327.7 1223.8 295C1249.3 262.3 1257.7 229.7 1259.7 196.8C1261.7 164 1257.3 131 1248.8 98.2C1240.3 65.3 1227.7 32.7 1221.3 16.3L1215 0L1280 0L1280 16.3C1280 32.7 1280 65.3 1280 98.2C1280 131 1280 164 1280 196.8C1280 229.7 1280 262.3 1280 295C1280 327.7 1280 360.3 1280 393.2C1280 426 1280 459 1280 491.8C1280 524.7 1280 557.3 1280 573.7L1280 590Z" fill="#4897d8"></path><path d="M1164 590L1157.5 573.7C1151 557.3 1138 524.7 1127.3 491.8C1116.7 459 1108.3 426 1076.3 393.2C1044.3 360.3 988.7 327.7 980.2 295C971.7 262.3 1010.3 229.7 972 196.8C933.7 164 818.3 131 807.7 98.2C797 65.3 891 32.7 938 16.3L985 0L1216 0L1222.3 16.3C1228.7 32.7 1241.3 65.3 1249.8 98.2C1258.3 131 1262.7 164 1260.7 196.8C1258.7 229.7 1250.3 262.3 1224.8 295C1199.3 327.7 1156.7 360.3 1158.7 393.2C1160.7 426 1207.3 459 1235 491.8C1262.7 524.7 1271.3 557.3 1275.7 573.7L1280 590Z" fill="#00aade"></path><path d="M972 590L976.2 573.7C980.3 557.3 988.7 524.7 1007.8 491.8C1027 459 1057 426 1008 393.2C959 360.3 831 327.7 788.3 295C745.7 262.3 788.3 229.7 771.3 196.8C754.3 164 677.7 131 682 98.2C686.3 65.3 771.7 32.7 814.3 16.3L857 0L986 0L939 16.3C892 32.7 798 65.3 808.7 98.2C819.3 131 934.7 164 973 196.8C1011.3 229.7 972.7 262.3 981.2 295C989.7 327.7 1045.3 360.3 1077.3 393.2C1109.3 426 1117.7 459 1128.3 491.8C1139 524.7 1152 557.3 1158.5 573.7L1165 590Z" fill="#00bbd5"></path><path d="M447 590L468.3 573.7C489.7 557.3 532.3 524.7 562.2 491.8C592 459 609 426 602.7 393.2C596.3 360.3 566.7 327.7 547.5 295C528.3 262.3 519.7 229.7 517.5 196.8C515.3 164 519.7 131 541 98.2C562.3 65.3 600.7 32.7 619.8 16.3L639 0L858 0L815.3 16.3C772.7 32.7 687.3 65.3 683 98.2C678.7 131 755.3 164 772.3 196.8C789.3 229.7 746.7 262.3 789.3 295C832 327.7 960 360.3 1009 393.2C1058 426 1028 459 1008.8 491.8C989.7 524.7 981.3 557.3 977.2 573.7L973 590Z" fill="#00c9c0"></path><path d="M242 590L295.3 573.7C348.7 557.3 455.3 524.7 519.3 491.8C583.3 459 604.7 426 577 393.2C549.3 360.3 472.7 327.7 440.7 295C408.7 262.3 421.3 229.7 423.5 196.8C425.7 164 417.3 131 419.5 98.2C421.7 65.3 434.3 32.7 440.7 16.3L447 0L640 0L620.8 16.3C601.7 32.7 563.3 65.3 542 98.2C520.7 131 516.3 164 518.5 196.8C520.7 229.7 529.3 262.3 548.5 295C567.7 327.7 597.3 360.3 603.7 393.2C610 426 593 459 563.2 491.8C533.3 524.7 490.7 557.3 469.3 573.7L448 590Z" fill="#43d4a3"></path><path d="M242 590L263.3 573.7C284.7 557.3 327.3 524.7 361.5 491.8C395.7 459 421.3 426 393.7 393.2C366 360.3 285 327.7 255.2 295C225.3 262.3 246.7 229.7 242.3 196.8C238 164 208 131 233.5 98.2C259 65.3 340 32.7 380.5 16.3L421 0L448 0L441.7 16.3C435.3 32.7 422.7 65.3 420.5 98.2C418.3 131 426.7 164 424.5 196.8C422.3 229.7 409.7 262.3 441.7 295C473.7 327.7 550.3 360.3 578 393.2C605.7 426 584.3 459 520.3 491.8C456.3 524.7 349.7 557.3 296.3 573.7L243 590Z" fill="#87db82"></path><path d="M127 590L129.2 573.7C131.3 557.3 135.7 524.7 125 491.8C114.3 459 88.7 426 65.3 393.2C42 360.3 21 327.7 23.2 295C25.3 262.3 50.7 229.7 80.3 196.8C110 164 144 131 150.3 98.2C156.7 65.3 135.3 32.7 124.7 16.3L114 0L422 0L381.5 16.3C341 32.7 260 65.3 234.5 98.2C209 131 239 164 243.3 196.8C247.7 229.7 226.3 262.3 256.2 295C286 327.7 367 360.3 394.7 393.2C422.3 426 396.7 459 362.5 491.8C328.3 524.7 285.7 557.3 264.3 573.7L243 590Z" fill="#c3de67"></path><path d="M0 590L0 573.7C0 557.3 0 524.7 0 491.8C0 459 0 426 0 393.2C0 360.3 0 327.7 0 295C0 262.3 0 229.7 0 196.8C0 164 0 131 0 98.2C0 65.3 0 32.7 0 16.3L0 0L115 0L125.7 16.3C136.3 32.7 157.7 65.3 151.3 98.2C145 131 111 164 81.2 196.8C51.3 229.7 25.7 262.3 23.5 295C21.3 327.7 42.7 360.3 66.2 393.2C89.7 426 115.3 459 126 491.8C136.7 524.7 132.3 557.3 130.2 573.7L128 590Z" fill="#ffdb5c"></path></svg>