<svg id="visual" viewBox="0 0 1280 590" width="1280" height="590" xmlns="http://www.w3.org/2000/svg" xmlns:xlink="http://www.w3.org/1999/xlink" version="1.1"><path d="M1253 590L1206.2 540.8C1159.3 491.7 1065.7 393.3 999.7 295C933.7 196.7 895.3 98.3 876.2 49.2L857 0L1280 0L1280 49.2C1280 98.3 1280 196.7 1280 295C1280 393.3 1280 491.7 1280 540.8L1280 590Z" fill="#4897d8"></path><path d="M1215 590L1170.2 540.8C1125.3 491.7 1035.7 393.3 950.3 295C865 196.7 784 98.3 743.5 49.2L703 0L858 0L877.2 49.2C896.3 98.3 934.7 196.7 1000.7 295C1066.7 393.3 1160.3 491.7 1207.2 540.8L1254 590Z" fill="#00a3dd"></path><path d="M1202 590L1159.3 540.8C1116.7 491.7 1031.3 393.3 924.7 295C818 196.7 690 98.3 626 49.2L562 0L704 0L744.5 49.2C785 98.3 866 196.7 951.3 295C1036.7 393.3 1126.3 491.7 1171.2 540.8L1216 590Z" fill="#00afdd"></path><path d="M1202 590L1153 540.8C1104 491.7 1006 393.3 893 295C780 196.7 652 98.3 588 49.2L524 0L563 0L627 49.2C691 98.3 819 196.7 925.7 295C1032.3 393.3 1117.7 491.7 1160.3 540.8L1203 590Z" fill="#00bad6"></path><path d="M985 590L942.3 540.8C899.7 491.7 814.3 393.3 729 295C643.7 196.7 558.3 98.3 515.7 49.2L473 0L525 0L589 49.2C653 98.3 781 196.7 894 295C1007 393.3 1105 491.7 1154 540.8L1203 590Z" fill="#00c3cb"></path><path d="M485 590L472.3 540.8C459.7 491.7 434.3 393.3 406.7 295C379 196.7 349 98.3 334 49.2L319 0L474 0L516.7 49.2C559.3 98.3 644.7 196.7 730 295C815.3 393.3 900.7 491.7 943.3 540.8L986 590Z" fill="#00cbbb"></path><path d="M434 590L423.3 540.8C412.7 491.7 391.3 393.3 363.7 295C336 196.7 302 98.3 285 49.2L268 0L320 0L335 49.2C350 98.3 380 196.7 407.7 295C435.3 393.3 460.7 491.7 473.3 540.8L486 590Z" fill="#33d2a8"></path><path d="M396 590L381 540.8C366 491.7 336 393.3 301.8 295C267.7 196.7 229.3 98.3 210.2 49.2L191 0L269 0L286 49.2C303 98.3 337 196.7 364.7 295C392.3 393.3 413.7 491.7 424.3 540.8L435 590Z" fill="#64d894"></path><path d="M383 590L361.7 540.8C340.3 491.7 297.7 393.3 248.7 295C199.7 196.7 144.3 98.3 116.7 49.2L89 0L192 0L211.2 49.2C230.3 98.3 268.7 196.7 302.8 295C337 393.3 367 491.7 382 540.8L397 590Z" fill="#8cdc80"></path><path d="M127 590L133.3 540.8C139.7 491.7 152.3 393.3 139.5 295C126.7 196.7 88.3 98.3 69.2 49.2L50 0L90 0L117.7 49.2C145.3 98.3 200.7 196.7 249.7 295C298.7 393.3 341.3 491.7 362.7 540.8L384 590Z" fill="#b3de6d"></path><path d="M12 590L18.3 540.8C24.7 491.7 37.3 393.3 37.3 295C37.3 196.7 24.7 98.3 18.3 49.2L12 0L51 0L70.2 49.2C89.3 98.3 127.7 196.7 140.5 295C153.3 393.3 140.7 491.7 134.3 540.8L128 590Z" fill="#d9de60"></path><path d="M0 590L0 540.8C0 491.7 0 393.3 0 295C0 196.7 0 98.3 0 49.2L0 0L13 0L19.3 49.2C25.7 98.3 38.3 196.7 38.3 295C38.3 393.3 25.7 491.7 19.3 540.8L13 590Z" fill="#ffdb5c"></path></svg>