<svg id="visual" viewBox="0 0 1280 590" width="1280" height="590" xmlns="http://www.w3.org/2000/svg" xmlns:xlink="http://www.w3.org/1999/xlink" version="1.1"><path d="M1215 590L1212.8 540.8C1210.7 491.7 1206.3 393.3 1212.7 295C1219 196.7 1236 98.3 1244.5 49.2L1253 0L1280 0L1280 49.2C1280 98.3 1280 196.7 1280 295C1280 393.3 1280 491.7 1280 540.8L1280 590Z" fill="#ff9d8a"></path><path d="M1177 590L1179 540.8C1181 491.7 1185 393.3 1195.7 295C1206.3 196.7 1223.7 98.3 1232.3 49.2L1241 0L1254 0L1245.5 49.2C1237 98.3 1220 196.7 1213.7 295C1207.3 393.3 1211.7 491.7 1213.8 540.8L1216 590Z" fill="#ff9581"></path><path d="M1061 590L1067.5 540.8C1074 491.7 1087 393.3 1093.5 295C1100 196.7 1100 98.3 1100 49.2L1100 0L1242 0L1233.3 49.2C1224.7 98.3 1207.3 196.7 1196.7 295C1186 393.3 1182 491.7 1180 540.8L1178 590Z" fill="#fe8c78"></path><path d="M985 590L999.8 540.8C1014.7 491.7 1044.3 393.3 1037.8 295C1031.3 196.7 988.7 98.3 967.3 49.2L946 0L1101 0L1101 49.2C1101 98.3 1101 196.7 1094.5 295C1088 393.3 1075 491.7 1068.5 540.8L1062 590Z" fill="#fd846f"></path><path d="M857 590L889 540.8C921 491.7 985 393.3 985 295C985 196.7 921 98.3 889 49.2L857 0L947 0L968.3 49.2C989.7 98.3 1032.3 196.7 1038.8 295C1045.3 393.3 1015.7 491.7 1000.8 540.8L986 590Z" fill="#fc7b66"></path><path d="M767 590L796.8 540.8C826.7 491.7 886.3 393.3 890.7 295C895 196.7 844 98.3 818.5 49.2L793 0L858 0L890 49.2C922 98.3 986 196.7 986 295C986 393.3 922 491.7 890 540.8L858 590Z" fill="#fb735d"></path><path d="M665 590L697 540.8C729 491.7 793 393.3 807.8 295C822.7 196.7 788.3 98.3 771.2 49.2L754 0L794 0L819.5 49.2C845 98.3 896 196.7 891.7 295C887.3 393.3 827.7 491.7 797.8 540.8L768 590Z" fill="#f56b56"></path><path d="M460 590L464.2 540.8C468.3 491.7 476.7 393.3 504.3 295C532 196.7 579 98.3 602.5 49.2L626 0L755 0L772.2 49.2C789.3 98.3 823.7 196.7 808.8 295C794 393.3 730 491.7 698 540.8L666 590Z" fill="#ea6551"></path><path d="M204 590L225.3 540.8C246.7 491.7 289.3 393.3 353.3 295C417.3 196.7 502.7 98.3 545.3 49.2L588 0L627 0L603.5 49.2C580 98.3 533 196.7 505.3 295C477.7 393.3 469.3 491.7 465.2 540.8L461 590Z" fill="#df5e4b"></path><path d="M127 590L148.3 540.8C169.7 491.7 212.3 393.3 272 295C331.7 196.7 408.3 98.3 446.7 49.2L485 0L589 0L546.3 49.2C503.7 98.3 418.3 196.7 354.3 295C290.3 393.3 247.7 491.7 226.3 540.8L205 590Z" fill="#d45846"></path><path d="M127 590L120.7 540.8C114.3 491.7 101.7 393.3 135.8 295C170 196.7 251 98.3 291.5 49.2L332 0L486 0L447.7 49.2C409.3 98.3 332.7 196.7 273 295C213.3 393.3 170.7 491.7 149.3 540.8L128 590Z" fill="#ca5240"></path><path d="M0 590L0 540.8C0 491.7 0 393.3 0 295C0 196.7 0 98.3 0 49.2L0 0L333 0L292.5 49.2C252 98.3 171 196.7 136.8 295C102.7 393.3 115.3 491.7 121.7 540.8L128 590Z" fill="#bf4c3b"></path></svg>