<svg id="visual" viewBox="0 0 1280 540" width="1280" height="540" xmlns="http://www.w3.org/2000/svg" xmlns:xlink="http://www.w3.org/1999/xlink" version="1.1"><rect x="0" y="0" width="1280" height="540" fill="#ffffff"></rect><path d="M0 315L30.5 329.2C61 343.3 122 371.7 183 385C244 398.3 305 396.7 366 392.2C427 387.7 488 380.3 548.8 375.2C609.7 370 670.3 367 731.2 372C792 377 853 390 914 386.2C975 382.3 1036 361.7 1097 352.7C1158 343.7 1219 346.3 1249.5 347.7L1280 349L1280 541L1249.5 541C1219 541 1158 541 1097 541C1036 541 975 541 914 541C853 541 792 541 731.2 541C670.3 541 609.7 541 548.8 541C488 541 427 541 366 541C305 541 244 541 183 541C122 541 61 541 30.5 541L0 541Z" fill="#ffdb5c"></path><path d="M0 421L30.5 410.7C61 400.3 122 379.7 183 372.8C244 366 305 373 366 384C427 395 488 410 548.8 418.7C609.7 427.3 670.3 429.7 731.2 429C792 428.3 853 424.7 914 412.8C975 401 1036 381 1097 381.2C1158 381.3 1219 401.7 1249.5 411.8L1280 422L1280 541L1249.5 541C1219 541 1158 541 1097 541C1036 541 975 541 914 541C853 541 792 541 731.2 541C670.3 541 609.7 541 548.8 541C488 541 427 541 366 541C305 541 244 541 183 541C122 541 61 541 30.5 541L0 541Z" fill="#96dd7b"></path><path d="M0 427L30.5 431.3C61 435.7 122 444.3 183 449.5C244 454.7 305 456.3 366 455.8C427 455.3 488 452.7 548.8 448.5C609.7 444.3 670.3 438.7 731.2 436.2C792 433.7 853 434.3 914 430C975 425.7 1036 416.3 1097 410.8C1158 405.3 1219 403.7 1249.5 402.8L1280 402L1280 541L1249.5 541C1219 541 1158 541 1097 541C1036 541 975 541 914 541C853 541 792 541 731.2 541C670.3 541 609.7 541 548.8 541C488 541 427 541 366 541C305 541 244 541 183 541C122 541 61 541 30.5 541L0 541Z" fill="#00cfb2"></path><path d="M0 451L30.5 453.3C61 455.7 122 460.3 183 465.2C244 470 305 475 366 472.3C427 469.7 488 459.3 548.8 457.3C609.7 455.3 670.3 461.7 731.2 459.2C792 456.7 853 445.3 914 445.7C975 446 1036 458 1097 462.8C1158 467.7 1219 465.3 1249.5 464.2L1280 463L1280 541L1249.5 541C1219 541 1158 541 1097 541C1036 541 975 541 914 541C853 541 792 541 731.2 541C670.3 541 609.7 541 548.8 541C488 541 427 541 366 541C305 541 244 541 183 541C122 541 61 541 30.5 541L0 541Z" fill="#00b7d8"></path><path d="M0 492L30.5 492.7C61 493.3 122 494.7 183 494.7C244 494.7 305 493.3 366 496.5C427 499.7 488 507.3 548.8 510.5C609.7 513.7 670.3 512.3 731.2 512.5C792 512.7 853 514.3 914 508.7C975 503 1036 490 1097 487.5C1158 485 1219 493 1249.5 497L1280 501L1280 541L1249.5 541C1219 541 1158 541 1097 541C1036 541 975 541 914 541C853 541 792 541 731.2 541C670.3 541 609.7 541 548.8 541C488 541 427 541 366 541C305 541 244 541 183 541C122 541 61 541 30.5 541L0 541Z" fill="#4897d8"></path></svg>