<svg id="visual" viewBox="0 0 900 600" width="900" height="600" xmlns="http://www.w3.org/2000/svg" xmlns:xlink="http://www.w3.org/1999/xlink" version="1.1"><path d="M0 460L21.5 467.8C43 475.7 86 491.3 128.8 494.2C171.7 497 214.3 487 257.2 481.3C300 475.7 343 474.3 385.8 474.8C428.7 475.3 471.3 477.7 514.2 480.5C557 483.3 600 486.7 642.8 483.5C685.7 480.3 728.3 470.7 771.2 470C814 469.3 857 477.7 878.5 481.8L900 486L900 601L878.5 601C857 601 814 601 771.2 601C728.3 601 685.7 601 642.8 601C600 601 557 601 514.2 601C471.3 601 428.7 601 385.8 601C343 601 300 601 257.2 601C214.3 601 171.7 601 128.8 601C86 601 43 601 21.5 601L0 601Z" fill="#ffdb5c"></path><path d="M0 482L21.5 481C43 480 86 478 128.8 481C171.7 484 214.3 492 257.2 497.2C300 502.3 343 504.7 385.8 502C428.7 499.3 471.3 491.7 514.2 492.8C557 494 600 504 642.8 511.2C685.7 518.3 728.3 522.7 771.2 517.7C814 512.7 857 498.3 878.5 491.2L900 484L900 601L878.5 601C857 601 814 601 771.2 601C728.3 601 685.7 601 642.8 601C600 601 557 601 514.2 601C471.3 601 428.7 601 385.8 601C343 601 300 601 257.2 601C214.3 601 171.7 601 128.8 601C86 601 43 601 21.5 601L0 601Z" fill="#96dd7b"></path><path d="M0 529L21.5 529.8C43 530.7 86 532.3 128.8 529C171.7 525.7 214.3 517.3 257.2 517.8C300 518.3 343 527.7 385.8 529.5C428.7 531.3 471.3 525.7 514.2 523C557 520.3 600 520.7 642.8 523.8C685.7 527 728.3 533 771.2 536.3C814 539.7 857 540.3 878.5 540.7L900 541L900 601L878.5 601C857 601 814 601 771.2 601C728.3 601 685.7 601 642.8 601C600 601 557 601 514.2 601C471.3 601 428.7 601 385.8 601C343 601 300 601 257.2 601C214.3 601 171.7 601 128.8 601C86 601 43 601 21.5 601L0 601Z" fill="#00cfb2"></path><path d="M0 549L21.5 545.7C43 542.3 86 535.7 128.8 537C171.7 538.3 214.3 547.7 257.2 548.7C300 549.7 343 542.3 385.8 537.7C428.7 533 471.3 531 514.2 535C557 539 600 549 642.8 550.5C685.7 552 728.3 545 771.2 541C814 537 857 536 878.5 535.5L900 535L900 601L878.5 601C857 601 814 601 771.2 601C728.3 601 685.7 601 642.8 601C600 601 557 601 514.2 601C471.3 601 428.7 601 385.8 601C343 601 300 601 257.2 601C214.3 601 171.7 601 128.8 601C86 601 43 601 21.5 601L0 601Z" fill="#00b7d8"></path><path d="M0 569L21.5 569.3C43 569.7 86 570.3 128.8 572.5C171.7 574.7 214.3 578.3 257.2 576C300 573.7 343 565.3 385.8 561C428.7 556.7 471.3 556.3 514.2 557.7C557 559 600 562 642.8 565.5C685.7 569 728.3 573 771.2 571.5C814 570 857 563 878.5 559.5L900 556L900 601L878.5 601C857 601 814 601 771.2 601C728.3 601 685.7 601 642.8 601C600 601 557 601 514.2 601C471.3 601 428.7 601 385.8 601C343 601 300 601 257.2 601C214.3 601 171.7 601 128.8 601C86 601 43 601 21.5 601L0 601Z" fill="#4897d8"></path></svg>