<svg id="visual" viewBox="0 0 1280 590" width="1280" height="590" xmlns="http://www.w3.org/2000/svg" xmlns:xlink="http://www.w3.org/1999/xlink" version="1.1"><path d="M1279 590L1276.8 540.8C1274.7 491.7 1270.3 393.3 1266 295C1261.7 196.7 1257.3 98.3 1255.2 49.2L1253 0L1280 0L1280 49.2C1280 98.3 1280 196.7 1280 295C1280 393.3 1280 491.7 1280 540.8L1280 590Z" fill="#ffe791"></path><path d="M1215 590L1217.2 540.8C1219.3 491.7 1223.7 393.3 1200.2 295C1176.7 196.7 1125.3 98.3 1099.7 49.2L1074 0L1254 0L1256.2 49.2C1258.3 98.3 1262.7 196.7 1267 295C1271.3 393.3 1275.7 491.7 1277.8 540.8L1280 590Z" fill="#ffe588"></path><path d="M1202 590L1199.8 540.8C1197.7 491.7 1193.3 393.3 1163.5 295C1133.7 196.7 1078.3 98.3 1050.7 49.2L1023 0L1075 0L1100.7 49.2C1126.3 98.3 1177.7 196.7 1201.2 295C1224.7 393.3 1220.3 491.7 1218.2 540.8L1216 590Z" fill="#ffe37e"></path><path d="M1164 590L1153.3 540.8C1142.7 491.7 1121.3 393.3 1080.8 295C1040.3 196.7 980.7 98.3 950.8 49.2L921 0L1024 0L1051.7 49.2C1079.3 98.3 1134.7 196.7 1164.5 295C1194.3 393.3 1198.7 491.7 1200.8 540.8L1203 590Z" fill="#ffe175"></path><path d="M1087 590L1072 540.8C1057 491.7 1027 393.3 992.8 295C958.7 196.7 920.3 98.3 901.2 49.2L882 0L922 0L951.8 49.2C981.7 98.3 1041.3 196.7 1081.8 295C1122.3 393.3 1143.7 491.7 1154.3 540.8L1165 590Z" fill="#ffde6b"></path><path d="M972 590L912.2 540.8C852.3 491.7 732.7 393.3 658 295C583.3 196.7 553.7 98.3 538.8 49.2L524 0L883 0L902.2 49.2C921.3 98.3 959.7 196.7 993.8 295C1028 393.3 1058 491.7 1073 540.8L1088 590Z" fill="#ffdc61"></path><path d="M895 590L841.7 540.8C788.3 491.7 681.7 393.3 611.3 295C541 196.7 507 98.3 490 49.2L473 0L525 0L539.8 49.2C554.7 98.3 584.3 196.7 659 295C733.7 393.3 853.3 491.7 913.2 540.8L973 590Z" fill="#fad659"></path><path d="M626 590L602.5 540.8C579 491.7 532 393.3 459.5 295C387 196.7 289 98.3 240 49.2L191 0L474 0L491 49.2C508 98.3 542 196.7 612.3 295C682.7 393.3 789.3 491.7 842.7 540.8L896 590Z" fill="#efcc53"></path><path d="M268 590L248.8 540.8C229.7 491.7 191.3 393.3 165.7 295C140 196.7 127 98.3 120.5 49.2L114 0L192 0L241 49.2C290 98.3 388 196.7 460.5 295C533 393.3 580 491.7 603.5 540.8L627 590Z" fill="#e4c24d"></path><path d="M165 590L156.5 540.8C148 491.7 131 393.3 114 295C97 196.7 80 98.3 71.5 49.2L63 0L115 0L121.5 49.2C128 98.3 141 196.7 166.7 295C192.3 393.3 230.7 491.7 249.8 540.8L269 590Z" fill="#d9b847"></path><path d="M76 590L82.3 540.8C88.7 491.7 101.3 393.3 99.2 295C97 196.7 80 98.3 71.5 49.2L63 0L64 0L72.5 49.2C81 98.3 98 196.7 115 295C132 393.3 149 491.7 157.5 540.8L166 590Z" fill="#cfaf42"></path><path d="M0 590L0 540.8C0 491.7 0 393.3 0 295C0 196.7 0 98.3 0 49.2L0 0L64 0L72.5 49.2C81 98.3 98 196.7 100.2 295C102.3 393.3 89.7 491.7 83.3 540.8L77 590Z" fill="#c4a53c"></path></svg>