<svg id="visual" viewBox="0 0 3072 1920" width="3072" height="1920" xmlns="http://www.w3.org/2000/svg" xmlns:xlink="http://www.w3.org/1999/xlink" version="1.1"><rect x="0" y="0" width="3072" height="1920" fill="#4897D8"></rect><path d="M0 622L439 489L878 701L1317 590L1755 761L2194 915L2633 840L3072 504L3072 1921L2633 1921L2194 1921L1755 1921L1317 1921L878 1921L439 1921L0 1921Z" fill="#ffdb5c"></path><path d="M0 878L439 1138L878 820L1317 793L1755 1108L2194 991L2633 731L3072 929L3072 1921L2633 1921L2194 1921L1755 1921L1317 1921L878 1921L439 1921L0 1921Z" fill="#ffbf51"></path><path d="M0 1307L439 1105L878 1193L1317 1247L1755 1336L2194 1210L2633 1254L3072 1358L3072 1921L2633 1921L2194 1921L1755 1921L1317 1921L878 1921L439 1921L0 1921Z" fill="#ffa44e"></path><path d="M0 1276L439 1430L878 1511L1317 1336L1755 1341L2194 1532L2633 1506L3072 1325L3072 1921L2633 1921L2194 1921L1755 1921L1317 1921L878 1921L439 1921L0 1921Z" fill="#ff8951"></path><path d="M0 1629L439 1656L878 1575L1317 1688L1755 1605L2194 1577L2633 1525L3072 1516L3072 1921L2633 1921L2194 1921L1755 1921L1317 1921L878 1921L439 1921L0 1921Z" fill="#fa6e59"></path></svg>