<svg id="visual" viewBox="0 0 900 600" width="900" height="600" xmlns="http://www.w3.org/2000/svg" xmlns:xlink="http://www.w3.org/1999/xlink" version="1.1"><path d="M773 600L785 550C797 500 821 400 831.5 300C842 200 839 100 837.5 50L836 0L900 0L900 50C900 100 900 200 900 300C900 400 900 500 900 550L900 600Z" fill="#4897d8"></path><path d="M737 600L750.5 550C764 500 791 400 797 300C803 200 788 100 780.5 50L773 0L837 0L838.5 50C840 100 843 200 832.5 300C822 400 798 500 786 550L774 600Z" fill="#00a3dd"></path><path d="M620 600L639.5 550C659 500 698 400 723.5 300C749 200 761 100 767 50L773 0L774 0L781.5 50C789 100 804 200 798 300C792 400 765 500 751.5 550L738 600Z" fill="#00afdd"></path><path d="M557 600L587 550C617 500 677 400 704 300C731 200 725 100 722 50L719 0L774 0L768 50C762 100 750 200 724.5 300C699 400 660 500 640.5 550L621 600Z" fill="#00bad6"></path><path d="M350 600L377 550C404 500 458 400 474.5 300C491 200 470 100 459.5 50L449 0L720 0L723 50C726 100 732 200 705 300C678 400 618 500 588 550L558 600Z" fill="#00c3cb"></path><path d="M251 600L267.5 550C284 500 317 400 341 300C365 200 380 100 387.5 50L395 0L450 0L460.5 50C471 100 492 200 475.5 300C459 400 405 500 378 550L351 600Z" fill="#00cbbb"></path><path d="M206 600L227 550C248 500 290 400 314 300C338 200 344 100 347 50L350 0L396 0L388.5 50C381 100 366 200 342 300C318 400 285 500 268.5 550L252 600Z" fill="#33d2a8"></path><path d="M161 600L174.5 550C188 500 215 400 240.5 300C266 200 290 100 302 50L314 0L351 0L348 50C345 100 339 200 315 300C291 400 249 500 228 550L207 600Z" fill="#64d894"></path><path d="M161 600L171.5 550C182 500 203 400 224 300C245 200 266 100 276.5 50L287 0L315 0L303 50C291 100 267 200 241.5 300C216 400 189 500 175.5 550L162 600Z" fill="#8cdc80"></path><path d="M71 600L83 550C95 500 119 400 132.5 300C146 200 149 100 150.5 50L152 0L288 0L277.5 50C267 100 246 200 225 300C204 400 183 500 172.5 550L162 600Z" fill="#b3de6d"></path><path d="M62 600L62 550C62 500 62 400 51.7 300C41.3 200 20.7 100 10.3 50L0 0L153 0L151.5 50C150 100 147 200 133.5 300C120 400 96 500 84 550L72 600Z" fill="#d9de60"></path><path d="M0 600L0 550C0 500 0 400 0 300C0 200 0 100 0 50L0 0L0 0L10.5 50C21 100 42 200 52.5 300C63 400 63 500 63 550L63 600Z" fill="#ffdb5c"></path></svg>